<svg width="240" height="39" viewBox="0 0 240 39" fill="none" xmlns="http://www.w3.org/2000/svg">
<path d="M28.0141 0.643989C20.2761 0.639964 12.2025 2.39079 4.0538 4.66184C3.01906 4.87113 2.00936 5.55134 1.47546 6.39254C0.984634 7.18545 0.806334 7.98137 0.653076 8.81553C-0.138257 13.2711 -0.0420946 17.6461 0.122182 22.4941C0.158243 23.604 0.322519 24.9191 0.838388 25.7191C1.37729 26.5271 2.30085 27.0403 3.40371 27.2083C4.81268 27.4159 6.22608 27.592 7.64284 27.7366L7.33032 36.4887C7.28224 37.185 7.62081 37.7636 8.04151 38.0966C8.41815 38.3844 8.83786 38.5122 9.26858 38.5444C10.13 38.6098 11.1407 38.2395 11.6426 37.2796C13.8413 33.0293 15.2206 31.1527 17.9702 28.3292C25.1403 28.5063 31.3998 28.1058 38.4868 27.5796C40.992 27.5142 42.7119 25.4565 43.1666 23.8133C44.5259 19.555 44.7373 14.2984 44.8815 8.98458C44.9426 6.87855 44.2154 4.81076 42.9282 3.718C41.7042 2.72083 40.2217 2.3596 38.8634 1.98931C35.0901 1.131 31.3157 0.670151 28.0141 0.643989ZM38.3215 3.97459C39.6818 4.34589 40.8808 4.7031 41.6371 5.31991C42.8992 6.66724 42.8571 7.56379 42.8391 9.01778C42.6969 14.1717 42.4504 19.1736 41.2925 22.964C40.7937 24.3778 39.9242 25.384 38.2814 25.5359C31.0613 26.0723 24.7967 26.4868 17.5395 26.2795C17.3982 26.275 17.2575 26.2996 17.126 26.3519C16.9945 26.4042 16.8752 26.483 16.7752 26.5834C13.7261 29.6766 12.1665 31.8259 9.84255 36.3196C9.78846 36.4223 9.67126 36.4847 9.52701 36.4957C9.42985 36.4907 9.39079 36.4152 9.38478 36.3468L9.6993 26.8561C9.71834 26.3439 9.29763 25.8549 8.79078 25.7996C7.09604 25.637 5.40592 25.429 3.72224 25.1757C2.99502 25.064 2.72657 24.8638 2.52723 24.566C2.18065 23.7358 2.18866 23.2226 2.16162 22.4247C1.99934 17.62 1.91921 13.421 2.65344 9.24318C2.72156 8.62536 2.95195 7.99345 3.19636 7.46518C3.60104 6.82925 4.22108 6.73567 4.84313 6.5626C12.8125 4.35192 20.6097 2.6987 27.95 2.69367C31.5481 2.82448 35.3264 3.18672 38.3215 3.97459ZM10.7962 12.1149C9.6983 13.4361 9.80749 15.2302 10.6559 16.4316C11.0987 17.0605 11.7898 17.5667 12.6312 17.6814C13.7241 17.7719 14.4172 17.3272 15.1655 16.816C16.5208 15.6327 16.658 13.5679 15.6273 12.0767C15.1024 11.317 14.263 10.8612 13.4055 10.829C12.2316 10.8411 11.4342 11.3673 10.7962 12.1139V12.1149ZM22.6721 11.0363C21.5783 11.0715 20.6938 11.8322 20.1539 12.6533C19.5359 13.5921 19.1753 14.7673 19.6751 15.9195C20.6367 18.1362 23.9593 18.109 25.2845 15.8561C25.8956 14.8177 25.7393 13.6374 25.2845 12.7811C24.8318 11.9258 24.1466 11.2285 23.15 11.0685C22.9921 11.0424 22.8321 11.0316 22.6721 11.0363ZM32.3134 11.2446C31.9728 11.2365 31.6222 11.2687 31.2937 11.3562C29.9794 11.7084 28.8606 13.0709 29.0299 14.8146C29.116 15.6921 29.5177 16.5474 30.2419 17.137C30.9661 17.7256 32.0179 17.9893 33.1267 17.7609C34.4009 17.4992 35.1902 16.4679 35.4537 15.4717C35.7171 14.4755 35.651 13.4603 35.039 12.6372C34.7205 12.2118 34.3095 11.8652 33.8373 11.6238C33.365 11.3825 32.8441 11.2527 32.3144 11.2446H32.3134ZM13.3164 12.8777C13.5618 12.8797 13.7551 12.9582 13.9545 13.2459C14.4002 13.8919 14.276 14.871 13.8263 15.2634C13.3785 15.6558 13.099 15.6901 12.9027 15.6639C12.7064 15.6367 12.507 15.5009 12.3287 15.2473C11.9882 14.7643 11.888 13.9835 12.3357 13.426C12.5741 13.1081 13.0119 12.9099 13.3174 12.8777H13.3164ZM22.8154 13.102C22.8534 13.1081 23.2802 13.3566 23.4845 13.742C23.6889 14.1274 23.7269 14.4856 23.5326 14.8146C22.9546 15.7967 21.7256 15.5311 21.5392 15.1034C21.4691 14.9404 21.5222 14.2854 21.8598 13.7752C22.1953 13.263 22.6181 13.0709 22.8154 13.101V13.102ZM33.3972 13.8547C33.4593 13.9382 33.6106 14.4987 33.4934 14.9434C33.3752 15.3882 33.1828 15.6629 32.712 15.7595C32.109 15.8843 31.7705 15.7595 31.517 15.5512C31.2626 15.3449 31.0913 14.9958 31.0543 14.6224C30.9641 13.6967 31.2947 13.4824 31.8195 13.3415C32.4306 13.1906 33.1217 13.4542 33.3972 13.8547Z" fill="#FFFBFB" fill-opacity="0.99"/>
<path d="M57.7071 4.78661C57.7231 4.52499 57.8183 4.28953 57.9946 4.08124C58.0804 3.97913 58.1882 3.89798 58.3099 3.84393C58.4315 3.78989 58.5639 3.76437 58.6968 3.76931H65.5343C65.7647 3.76931 66.0021 3.86591 66.2475 4.0581C66.3625 4.14104 66.456 4.25049 66.5201 4.37725C66.5843 4.50402 66.6172 4.64441 66.6161 4.78661V15.7474H78.0564V4.78661C78.0564 4.50889 78.1525 4.27041 78.3439 4.07017C78.5362 3.86893 78.7846 3.76831 79.0921 3.76831H85.8375C86.144 3.76831 86.4124 3.84579 86.6428 3.99974C86.8732 4.1547 86.9884 4.40122 86.9884 4.74032V37.0904C86.9884 37.4295 86.8882 37.6841 86.6879 37.8531C86.4896 38.0232 86.2281 38.1077 85.9066 38.1077H79.0921C78.7856 38.1077 78.5362 38.0232 78.3439 37.8531C78.1525 37.6841 78.0564 37.4305 78.0564 37.0904V23.9562H66.6161V37.0904C66.6161 37.4144 66.5119 37.664 66.3056 37.8421C66.0982 38.0192 65.8178 38.1077 65.4642 38.1077H58.6968C58.0527 38.1077 57.7231 37.8068 57.7071 37.2061V4.78661ZM120.688 37.7153C120.489 37.8843 120.277 37.992 120.055 38.0383C119.847 38.0833 119.636 38.1069 119.423 38.1087H115.947C115.671 38.1087 115.432 38.0584 115.233 37.9578C115.033 37.8572 114.864 37.7223 114.726 37.5533C114.585 37.3777 114.469 37.1829 114.382 36.9747C114.289 36.7572 114.212 36.5332 114.151 36.3046L113.438 33.3442C113.208 33.8222 112.874 34.3656 112.436 34.9743C111.963 35.6204 111.401 36.1962 110.767 36.6849C110.092 37.2182 109.286 37.665 108.35 38.0272C107.414 38.3894 106.34 38.5706 105.127 38.5706C103.378 38.5706 101.789 38.2315 100.362 37.5533C98.9645 36.8974 97.7211 35.9516 96.7138 34.7781C95.7091 33.6069 94.9298 32.2384 94.3779 30.6727C93.8249 29.109 93.5485 27.4397 93.5485 25.6678V10.5211C93.5485 9.93545 93.6757 9.49271 93.9291 9.19185C94.1815 8.89099 94.5842 8.74106 95.1371 8.74106H100.454C101.115 8.74106 101.567 8.85175 101.812 9.07614C102.058 9.29952 102.181 9.73521 102.181 10.3822V25.4353C102.181 26.0994 102.331 26.7273 102.63 27.321C102.929 27.9147 103.324 28.4379 103.816 28.8927C104.307 29.3475 104.863 29.7067 105.485 29.9684C106.106 30.23 106.739 30.3608 107.384 30.3608C107.936 30.3608 108.508 30.23 109.099 29.9684C109.694 29.7034 110.245 29.3484 110.732 28.9158C111.231 28.4771 111.642 27.9599 111.964 27.3663C112.287 26.7726 112.447 26.1447 112.447 25.4826V10.4516C112.447 10.19 112.497 9.92841 112.598 9.66578C112.698 9.40417 112.847 9.20292 113.046 9.06406C113.246 8.9413 113.434 8.85678 113.61 8.81049C113.787 8.76421 113.991 8.74006 114.22 8.74006H119.423C120.082 8.74006 120.558 8.90307 120.849 9.22606C121.141 9.55007 121.287 9.98174 121.287 10.5211V36.3971C121.287 36.6889 121.222 36.9596 121.092 37.2061C120.962 37.4527 120.781 37.6458 120.551 37.7837L120.688 37.7153V37.7153ZM147.414 34.5235C146.999 34.9401 146.543 35.3869 146.045 35.8648C145.546 36.3428 144.997 36.7906 144.399 37.2061C143.797 37.6243 143.148 37.9698 142.466 38.2355C141.753 38.5094 140.995 38.6466 140.232 38.64C138.146 38.64 136.223 38.2476 134.465 37.4607C132.752 36.7054 131.209 35.6078 129.931 34.2348C128.665 32.8703 127.675 31.2634 126.962 29.4129C126.248 27.5635 125.891 25.5752 125.891 23.447C125.891 21.3038 126.248 19.3114 126.962 17.4701C127.675 15.6287 128.665 14.0247 129.931 12.6603C131.207 11.2886 132.751 10.1947 134.465 9.44643C136.223 8.66761 138.146 8.2782 140.232 8.2782C141.076 8.2782 141.848 8.40197 142.546 8.64849C143.22 8.88296 143.861 9.2014 144.456 9.59635C145.032 9.98174 145.561 10.4174 146.045 10.9024C146.528 11.3884 146.984 11.8624 147.414 12.3252V1.75687C147.414 1.26382 147.564 0.848247 147.863 0.509149C148.162 0.169046 148.611 0 149.21 0H154.389C154.589 0 154.8 0.0422614 155.022 0.126784C155.244 0.212313 155.448 0.331048 155.633 0.486006C155.816 0.639958 155.966 0.825103 156.081 1.04044C156.196 1.25677 156.254 1.49525 156.254 1.75687V36.3277C156.254 37.515 155.633 38.1087 154.389 38.1087H149.877C149.571 38.1087 149.332 38.0685 149.164 37.992C148.997 37.9166 148.851 37.8016 148.737 37.6569C148.609 37.4872 148.505 37.3007 148.427 37.1025C148.318 36.8414 148.203 36.5831 148.082 36.3277L147.414 34.5235V34.5235ZM134.178 23.447C134.17 24.4194 134.33 25.3859 134.65 26.3037C134.964 27.1892 135.413 27.9569 135.997 28.6039C136.586 29.256 137.303 29.7794 138.102 30.1414C138.924 30.5198 139.833 30.7079 140.831 30.7079C141.813 30.7079 142.737 30.5308 143.605 30.1766C144.447 29.8376 145.217 29.3389 145.872 28.7076C146.522 28.0753 147.049 27.3266 147.426 26.4999C147.817 25.6517 148.036 24.742 148.082 23.771V23.447C148.086 22.4794 147.898 21.5207 147.529 20.6266C147.173 19.7501 146.653 18.9497 145.999 18.268C145.343 17.5871 144.561 17.0413 143.697 16.6611C142.794 16.2636 141.817 16.0627 140.831 16.0714C139.833 16.0714 138.924 16.2676 138.102 16.6611C137.281 17.0535 136.58 17.5898 135.997 18.268C135.404 18.9622 134.947 19.7624 134.65 20.6266C134.333 21.5328 134.174 22.4868 134.179 23.447H134.178ZM182.98 34.5235C182.565 34.9401 182.109 35.3869 181.61 35.8648C181.111 36.3428 180.562 36.7906 179.964 37.2061C179.362 37.6243 178.713 37.9698 178.031 38.2355C177.318 38.5094 176.56 38.6466 175.797 38.64C173.71 38.64 171.788 38.2476 170.031 37.4607C168.317 36.7055 166.774 35.6079 165.496 34.2348C164.23 32.8703 163.24 31.2634 162.527 29.4129C161.813 27.5635 161.456 25.5752 161.456 23.447C161.456 21.3038 161.813 19.3114 162.527 17.4701C163.24 15.6287 164.229 14.0247 165.496 12.6603C166.773 11.2885 168.316 10.1946 170.031 9.44643C171.788 8.66761 173.71 8.2782 175.797 8.2782C176.641 8.2782 177.413 8.40197 178.111 8.64849C178.785 8.88296 179.426 9.2014 180.021 9.59635C180.597 9.98174 181.126 10.4174 181.61 10.9024C182.094 11.3884 182.549 11.8624 182.979 12.3252V1.75687C182.979 1.26382 183.129 0.848247 183.428 0.509149C183.728 0.169046 184.176 0 184.775 0H189.954C190.154 0 190.364 0.0422614 190.587 0.126784C190.81 0.212313 191.014 0.331048 191.198 0.486006C191.381 0.639958 191.531 0.825103 191.647 1.04044C191.761 1.25677 191.819 1.49525 191.819 1.75687V36.3277C191.819 37.515 191.198 38.1087 189.954 38.1087H185.442C185.136 38.1087 184.897 38.0685 184.729 37.992C184.562 37.9165 184.416 37.8015 184.303 37.6569C184.175 37.4872 184.071 37.3007 183.993 37.1025C183.884 36.8414 183.769 36.5831 183.647 36.3277L182.979 34.5235H182.98ZM169.743 23.447C169.735 24.4194 169.895 25.3859 170.215 26.3037C170.53 27.1892 170.979 27.9569 171.562 28.6039C172.152 29.2561 172.869 29.7795 173.668 30.1414C174.49 30.5198 175.398 30.7079 176.396 30.7079C177.378 30.7079 178.302 30.5308 179.17 30.1766C180.012 29.8378 180.782 29.339 181.437 28.7076C182.087 28.0752 182.614 27.3265 182.99 26.4999C183.382 25.6517 183.601 24.742 183.647 23.771V23.447C183.651 22.4794 183.463 21.5207 183.094 20.6266C182.737 19.7501 182.218 18.9497 181.564 18.268C180.908 17.5871 180.126 17.0413 179.262 16.6611C178.359 16.2636 177.382 16.0627 176.396 16.0714C175.398 16.0714 174.489 16.2676 173.668 16.6611C172.847 17.0535 172.145 17.5898 171.562 18.268C170.969 18.9622 170.512 19.7624 170.215 20.6266C169.898 21.5328 169.739 22.4868 169.744 23.447H169.743ZM197.943 1.78001C197.943 1.28696 198.065 0.87139 198.311 0.532292C198.557 0.192189 198.979 0.0231431 199.577 0.0231431H205.216C205.371 0.0231431 205.532 0.0654046 205.7 0.149927C205.877 0.241078 206.037 0.362656 206.172 0.509149C206.318 0.663101 206.441 0.848247 206.541 1.06358C206.641 1.27992 206.691 1.51839 206.691 1.78001V36.3277C206.691 36.9133 206.526 37.3561 206.195 37.6569C205.866 37.9578 205.44 38.1077 204.918 38.1077H199.577C198.979 38.1077 198.557 37.9568 198.311 37.6569C198.065 37.3561 197.943 36.9123 197.943 36.3277V1.78001ZM236.708 34.593C235.374 35.8315 233.831 36.822 232.151 37.5181C230.45 38.2222 228.627 38.58 226.787 38.5706C224.683 38.5706 222.697 38.1852 220.825 37.4134C218.995 36.6705 217.323 35.5838 215.898 34.2116C214.479 32.8369 213.338 31.1996 212.538 29.3898C211.708 27.5403 211.295 25.5289 211.295 23.3545C211.295 21.9981 211.459 20.6839 211.79 19.4121C212.109 18.1676 212.581 16.9678 213.194 15.84C213.8 14.7299 214.542 13.7006 215.404 12.776C216.262 11.8499 217.242 11.0447 218.316 10.3822C219.408 9.71122 220.585 9.19007 221.814 8.83263C223.108 8.45785 224.449 8.27115 225.796 8.2782C227.07 8.2782 228.305 8.44825 229.502 8.78735C230.699 9.12645 231.824 9.6044 232.875 10.2202C233.927 10.837 234.888 11.5776 235.764 12.4409C236.627 13.2899 237.385 14.241 238.02 15.2735C238.649 16.2984 239.141 17.4024 239.482 18.5568C239.827 19.721 240 20.9194 240 22.152C240 22.954 239.988 23.609 239.965 24.1182C239.942 24.6263 239.823 25.0318 239.608 25.3317C239.393 25.6335 239.037 25.8408 238.538 25.9555C238.039 26.0723 237.305 26.1296 236.34 26.1296H219.766C219.919 27.1157 220.23 27.9408 220.698 28.6049C221.131 29.2335 221.682 29.7711 222.32 30.1877C222.934 30.5811 223.586 30.8619 224.278 31.0329C224.917 31.1957 225.574 31.2808 226.234 31.2865C226.787 31.2865 227.354 31.2282 227.937 31.1134C228.511 31.0002 229.077 30.8455 229.63 30.6506C230.146 30.4702 230.647 30.2457 231.125 29.9794C231.578 29.7259 231.942 29.4592 232.219 29.1825C232.464 28.9813 232.676 28.8313 232.852 28.7307C233.028 28.6301 233.217 28.5808 233.416 28.5808C233.616 28.5808 233.819 28.6512 234.027 28.7891C234.279 28.9663 234.514 29.1675 234.728 29.3898L237.168 32.1649C237.337 32.3662 237.445 32.5473 237.491 32.7083C237.537 32.8703 237.56 33.0363 237.56 33.2054C237.56 33.5143 237.475 33.7799 237.306 34.0033C237.136 34.228 236.935 34.4267 236.707 34.593H236.708ZM225.636 15.3308C225.037 15.3308 224.458 15.4506 223.898 15.689C223.33 15.9328 222.798 16.2559 222.32 16.649C221.829 17.0495 221.389 17.5043 220.997 18.0134C220.623 18.4934 220.303 19.0131 220.041 19.563H231.804C231.496 18.9833 231.146 18.4267 230.757 17.8977C230.388 17.3958 229.955 16.9449 229.468 16.5564C228.971 16.1634 228.41 15.8585 227.81 15.6548C227.189 15.4385 226.464 15.3308 225.636 15.3308Z" fill="white"/>
</svg>
